<?xml version="1.0" encoding="UTF-8"?>
<svg width="256" height="256" viewBox="0 0 256 256" xmlns="http://www.w3.org/2000/svg">
  <title>C-3PO Protocol Droid</title>

  <defs>
    <!-- Gold metallic gradient -->
    <linearGradient id="goldGradient" x1="0%" y1="0%" x2="0%" y2="100%">
      <stop offset="0%" stop-color="#ffd966"/>
      <stop offset="20%" stop-color="#f4c430"/>
      <stop offset="50%" stop-color="#d4af37"/>
      <stop offset="80%" stop-color="#b8860b"/>
      <stop offset="100%" stop-color="#9a7209"/>
    </linearGradient>

    <!-- Bright gold shine -->
    <linearGradient id="goldShine" x1="0%" y1="0%" x2="100%" y2="100%">
      <stop offset="0%" stop-color="#ffffff" stop-opacity="0.8"/>
      <stop offset="40%" stop-color="#fff4cc" stop-opacity="0.4"/>
      <stop offset="100%" stop-color="#d4af37" stop-opacity="0"/>
    </linearGradient>

    <!-- Eye glow gradient -->
    <radialGradient id="eyeGlow">
      <stop offset="0%" stop-color="#ffffcc"/>
      <stop offset="40%" stop-color="#ffff66"/>
      <stop offset="80%" stop-color="#ffcc00"/>
      <stop offset="100%" stop-color="#cc9900"/>
    </radialGradient>

    <!-- Shadow gradient -->
    <linearGradient id="shadowGradient" x1="0%" y1="0%" x2="0%" y2="100%">
      <stop offset="0%" stop-color="#9a7209" stop-opacity="0"/>
      <stop offset="60%" stop-color="#7a5a08" stop-opacity="0.6"/>
      <stop offset="100%" stop-color="#5a4206" stop-opacity="0.8"/>
    </linearGradient>

    <!-- Glow filter -->
    <filter id="eyeGlowFilter">
      <feGaussianBlur in="SourceGraphic" stdDeviation="2"/>
    </filter>
  </defs>

  <!-- Background -->
  <rect width="256" height="256" fill="#1a1510"/>

  <!-- Head base (rounded rectangle) -->
  <rect x="60" y="45" width="136" height="160" fill="url(#goldGradient)" rx="25"/>

  <!-- Top shine -->
  <rect x="64" y="48" width="128" height="70" fill="url(#goldShine)" rx="22" opacity="0.5"/>

  <!-- Shadow on lower head -->
  <rect x="64" y="150" width="128" height="50" fill="url(#shadowGradient)" rx="20" opacity="0.4"/>

  <!-- Facial plate details -->
  <rect x="68" y="80" width="120" height="100" fill="none" stroke="#b8860b" stroke-width="2" rx="15" opacity="0.5"/>

  <!-- Eye sockets (recessed) -->
  <ellipse cx="105" cy="110" rx="18" ry="22" fill="#7a5a08"/>
  <ellipse cx="151" cy="110" rx="18" ry="22" fill="#7a5a08"/>

  <!-- Eye glow bases -->
  <ellipse cx="105" cy="110" rx="16" ry="20" fill="url(#eyeGlow)" opacity="0.8">
    <animate attributeName="opacity" values="0.8;1;0.8" dur="3s" repeatCount="indefinite"/>
  </ellipse>
  <ellipse cx="151" cy="110" rx="16" ry="20" fill="url(#eyeGlow)" opacity="0.8">
    <animate attributeName="opacity" values="0.8;1;0.8" dur="3s" repeatCount="indefinite"/>
  </ellipse>

  <!-- Eye bright cores -->
  <ellipse cx="105" cy="108" rx="10" ry="14" fill="#ffffcc">
    <animate attributeName="opacity" values="0.9;1;0.9" dur="3s" repeatCount="indefinite"/>
  </ellipse>
  <ellipse cx="151" cy="108" rx="10" ry="14" fill="#ffffcc">
    <animate attributeName="opacity" values="0.9;1;0.9" dur="3s" repeatCount="indefinite"/>
  </ellipse>

  <!-- Eye highlights -->
  <ellipse cx="102" cy="105" rx="4" ry="6" fill="#ffffff" opacity="0.9"/>
  <ellipse cx="148" cy="105" rx="4" ry="6" fill="#ffffff" opacity="0.9"/>

  <!-- Eye glow halos -->
  <ellipse cx="105" cy="110" rx="20" ry="24" fill="url(#eyeGlow)" opacity="0.3" filter="url(#eyeGlowFilter)">
    <animate attributeName="opacity" values="0.3;0.5;0.3" dur="3s" repeatCount="indefinite"/>
  </ellipse>
  <ellipse cx="151" cy="110" rx="20" ry="24" fill="url(#eyeGlow)" opacity="0.3" filter="url(#eyeGlowFilter)">
    <animate attributeName="opacity" values="0.3;0.5;0.3" dur="3s" repeatCount="indefinite"/>
  </ellipse>

  <!-- Mouth area (speaker grille) -->
  <rect x="98" y="145" width="60" height="25" fill="#7a5a08" rx="8"/>
  <g opacity="0.6">
    <line x1="102" y1="150" x2="154" y2="150" stroke="#5a4206" stroke-width="1.5"/>
    <line x1="102" y1="155" x2="154" y2="155" stroke="#5a4206" stroke-width="1.5"/>
    <line x1="102" y1="160" x2="154" y2="160" stroke="#5a4206" stroke-width="1.5"/>
    <line x1="102" y1="165" x2="154" y2="165" stroke="#5a4206" stroke-width="1.5"/>
  </g>

  <!-- Cheek panels -->
  <rect x="68" y="120" width="25" height="35" fill="url(#goldGradient)" rx="8" opacity="0.8"/>
  <rect x="163" y="120" width="25" height="35" fill="url(#goldGradient)" rx="8" opacity="0.8"/>

  <!-- Forehead detail -->
  <ellipse cx="128" cy="70" rx="30" ry="12" fill="none" stroke="#b8860b" stroke-width="2" opacity="0.5"/>

  <!-- Panel lines -->
  <g opacity="0.3" stroke="#9a7209" stroke-width="1.5" fill="none">
    <line x1="128" y1="50" x2="128" y2="75"/>
    <line x1="75" y1="95" x2="180" y2="95"/>
    <line x1="75" y1="135" x2="180" y2="135"/>
  </g>

  <!-- Side highlight -->
  <ellipse cx="75" cy="115" rx="8" ry="40" fill="#ffffff" opacity="0.2"/>
  <ellipse cx="181" cy="115" rx="8" ry="40" fill="#000000" opacity="0.2"/>

  <!-- Chin detail -->
  <rect x="108" y="180" width="40" height="15" fill="url(#goldGradient)" rx="6" opacity="0.9"/>
  <rect x="110" y="182" width="36" height="4" fill="#fff4cc" opacity="0.3"/>
</svg>
