<?xml version="1.0" encoding="UTF-8"?>
<svg width="256" height="256" viewBox="0 0 256 256" xmlns="http://www.w3.org/2000/svg">
  <title>C-3PO Protocol Droid</title>

  <defs>
    <!-- Gold metallic gradient -->
    <radialGradient id="goldHead">
      <stop offset="0%" stop-color="#ffd966"/>
      <stop offset="40%" stop-color="#f4c430"/>
      <stop offset="70%" stop-color="#d4af37"/>
      <stop offset="100%" stop-color="#b8860b"/>
    </radialGradient>

    <!-- Darker gold -->
    <radialGradient id="darkGold">
      <stop offset="0%" stop-color="#d4af37"/>
      <stop offset="60%" stop-color="#b8860b"/>
      <stop offset="100%" stop-color="#8b6914"/>
    </radialGradient>

    <!-- Eye glow gradient -->
    <radialGradient id="eyeGlow">
      <stop offset="0%" stop-color="#ffffff"/>
      <stop offset="30%" stop-color="#ffffcc"/>
      <stop offset="70%" stop-color="#ffff66"/>
      <stop offset="100%" stop-color="#ffcc00"/>
    </radialGradient>

    <!-- Glow filter -->
    <filter id="glow">
      <feGaussianBlur in="SourceGraphic" stdDeviation="3"/>
    </filter>
  </defs>

  <!-- Background -->
  <rect width="256" height="256" fill="#1a1510"/>

  <!-- Head shadow -->
  <ellipse cx="130" cy="132" rx="68" ry="72" fill="#000000" opacity="0.4"/>

  <!-- Main head (more rounded, C-3PO style) -->
  <ellipse cx="128" cy="128" rx="65" ry="70" fill="url(#goldHead)"/>

  <!-- Top dome highlight -->
  <ellipse cx="128" cy="100" rx="45" ry="35" fill="#ffffff" opacity="0.3"/>

  <!-- Face panel (darker inset oval) -->
  <ellipse cx="128" cy="135" rx="52" ry="55" fill="url(#darkGold)"/>

  <!-- Forehead panel line (C-3PO's distinctive worry line) -->
  <path d="M 85 95 Q 128 88 171 95" fill="none" stroke="#8b6914" stroke-width="3" opacity="0.6"/>

  <!-- Upper forehead panel -->
  <path d="M 90 85 Q 128 80 166 85" fill="none" stroke="#8b6914" stroke-width="2" opacity="0.5"/>

  <!-- Large round eyes (C-3PO's most distinctive feature) -->
  <!-- Left eye socket -->
  <circle cx="105" cy="120" r="22" fill="#5a4206"/>
  <circle cx="105" cy="120" r="20" fill="#000000"/>

  <!-- Right eye socket -->
  <circle cx="151" cy="120" r="22" fill="#5a4206"/>
  <circle cx="151" cy="120" r="20" fill="#000000"/>

  <!-- Left eye glow -->
  <circle cx="105" cy="120" r="18" fill="url(#eyeGlow)" opacity="0.9">
    <animate attributeName="opacity" values="0.8;1;0.8" dur="3s" repeatCount="indefinite"/>
  </circle>
  <circle cx="105" cy="120" r="12" fill="#ffffcc">
    <animate attributeName="opacity" values="0.9;1;0.9" dur="3s" repeatCount="indefinite"/>
  </circle>

  <!-- Right eye glow -->
  <circle cx="151" cy="120" r="18" fill="url(#eyeGlow)" opacity="0.9">
    <animate attributeName="opacity" values="0.8;1;0.8" dur="3s" repeatCount="indefinite"/>
  </circle>
  <circle cx="151" cy="120" r="12" fill="#ffffcc">
    <animate attributeName="opacity" values="0.9;1;0.9" dur="3s" repeatCount="indefinite"/>
  </circle>

  <!-- Eye highlights -->
  <circle cx="100" cy="115" r="5" fill="#ffffff" opacity="0.9"/>
  <circle cx="146" cy="115" r="5" fill="#ffffff" opacity="0.9"/>

  <!-- Eye outer glow -->
  <circle cx="105" cy="120" r="25" fill="url(#eyeGlow)" opacity="0.3" filter="url(#glow)">
    <animate attributeName="opacity" values="0.2;0.4;0.2" dur="3s" repeatCount="indefinite"/>
  </circle>
  <circle cx="151" cy="120" r="25" fill="url(#eyeGlow)" opacity="0.3" filter="url(#glow)">
    <animate attributeName="opacity" values="0.2;0.4;0.2" dur="3s" repeatCount="indefinite"/>
  </circle>

  <!-- Nose bridge detail -->
  <rect x="124" y="128" width="8" height="18" fill="#8b6914" rx="2" opacity="0.7"/>

  <!-- Circular mouth speaker grille (C-3PO style) -->
  <ellipse cx="128" cy="160" rx="20" ry="16" fill="#5a4206"/>
  <ellipse cx="128" cy="160" rx="18" ry="14" fill="#3a2a04"/>

  <!-- Mouth grille lines -->
  <g opacity="0.6" stroke="#2a1a02" stroke-width="1.5">
    <line x1="112" y1="160" x2="144" y2="160"/>
    <line x1="114" y1="155" x2="142" y2="155"/>
    <line x1="114" y1="165" x2="142" y2="165"/>
    <line x1="116" y1="152" x2="140" y2="152"/>
    <line x1="116" y1="168" x2="140" y2="168"/>
  </g>

  <!-- Jaw panel line -->
  <path d="M 85 175 Q 128 180 171 175" fill="none" stroke="#8b6914" stroke-width="3" opacity="0.6"/>

  <!-- Side ear panels (C-3PO's ear details) -->
  <ellipse cx="70" cy="130" rx="10" ry="25" fill="url(#darkGold)"/>
  <ellipse cx="186" cy="130" rx="10" ry="25" fill="url(#darkGold)"/>

  <!-- Ear panel details -->
  <ellipse cx="70" cy="130" rx="6" ry="20" fill="#5a4206" opacity="0.5"/>
  <ellipse cx="186" cy="130" rx="6" ry="20" fill="#5a4206" opacity="0.5"/>

  <!-- Center face seam (C-3PO's vertical face line) -->
  <line x1="128" y1="90" x2="128" y2="180" stroke="#8b6914" stroke-width="2" opacity="0.4"/>

  <!-- Horizontal face seams -->
  <line x1="80" y1="135" x2="176" y2="135" stroke="#8b6914" stroke-width="1.5" opacity="0.3"/>

  <!-- Metallic highlights -->
  <ellipse cx="90" cy="110" rx="10" ry="30" fill="#ffffff" opacity="0.15"/>
  <ellipse cx="166" cy="110" rx="10" ry="30" fill="#000000" opacity="0.15"/>

  <!-- Top panel detail -->
  <ellipse cx="128" cy="75" rx="25" ry="10" fill="none" stroke="#b8860b" stroke-width="2" opacity="0.4"/>
</svg>
