<?xml version="1.0" encoding="UTF-8"?>
<svg width="256" height="256" viewBox="0 0 256 256" xmlns="http://www.w3.org/2000/svg">
  <title>Cylon Centurion</title>

  <defs>
    <!-- Chrome helmet gradient (realistic metallic) -->
    <radialGradient id="chromeHelmet">
      <stop offset="0%" stop-color="#f0f0f0"/>
      <stop offset="30%" stop-color="#c8c8c8"/>
      <stop offset="60%" stop-color="#909090"/>
      <stop offset="100%" stop-color="#606060"/>
    </radialGradient>

    <!-- Chrome reflection gradient -->
    <linearGradient id="chromeReflection" x1="0%" y1="0%" x2="0%" y2="100%">
      <stop offset="0%" stop-color="#ffffff" stop-opacity="0.9"/>
      <stop offset="15%" stop-color="#e8e8e8" stop-opacity="0.6"/>
      <stop offset="40%" stop-color="#a0a0a0" stop-opacity="0.2"/>
      <stop offset="70%" stop-color="#707070" stop-opacity="0.3"/>
      <stop offset="100%" stop-color="#505050" stop-opacity="0.5"/>
    </linearGradient>

    <!-- Scanner gradient -->
    <linearGradient id="scanGrad" x1="0%" y1="0%" x2="100%" y2="0%">
      <stop offset="0%" stop-color="#660000" stop-opacity="0"/>
      <stop offset="25%" stop-color="#ff0000" stop-opacity="0.5"/>
      <stop offset="50%" stop-color="#ff3333" stop-opacity="1"/>
      <stop offset="75%" stop-color="#ff0000" stop-opacity="0.5"/>
      <stop offset="100%" stop-color="#660000" stop-opacity="0"/>
    </linearGradient>

    <!-- Bright scanner core -->
    <linearGradient id="scanCore" x1="0%" y1="0%" x2="100%" y2="0%">
      <stop offset="0%" stop-color="#990000" stop-opacity="0"/>
      <stop offset="40%" stop-color="#ff6666" stop-opacity="0.8"/>
      <stop offset="50%" stop-color="#ffcccc" stop-opacity="1"/>
      <stop offset="60%" stop-color="#ff6666" stop-opacity="0.8"/>
      <stop offset="100%" stop-color="#990000" stop-opacity="0"/>
    </linearGradient>

    <!-- Filters -->
    <filter id="glow">
      <feGaussianBlur in="SourceGraphic" stdDeviation="4"/>
    </filter>
    <filter id="strongGlow">
      <feGaussianBlur in="SourceGraphic" stdDeviation="6"/>
    </filter>
  </defs>

  <!-- Background -->
  <rect width="256" height="256" fill="#1a1a1a"/>

  <!-- Helmet shadow -->
  <ellipse cx="130" cy="135" rx="90" ry="65" fill="#000000" opacity="0.4"/>

  <!-- Main helmet dome (chrome, more rounded/realistic shape) -->
  <path d="M 50 128 Q 50 75 128 65 Q 206 75 206 128 L 206 155 Q 206 175 128 180 Q 50 175 50 155 Z"
        fill="url(#chromeHelmet)"/>

  <!-- Chrome reflection highlight (top of helmet) -->
  <ellipse cx="128" cy="95" rx="70" ry="25" fill="url(#chromeReflection)" opacity="0.6"/>

  <!-- Bright chrome highlight stripe -->
  <ellipse cx="128" cy="85" rx="60" ry="15" fill="#ffffff" opacity="0.4"/>

  <!-- Helmet curve detail (temple areas) -->
  <path d="M 60 120 Q 70 100 85 95" fill="none" stroke="#ffffff" stroke-width="2" opacity="0.3"/>
  <path d="M 196 120 Q 186 100 171 95" fill="none" stroke="#ffffff" stroke-width="2" opacity="0.3"/>

  <!-- Dark visor slot area (horizontal band) -->
  <rect x="48" y="125" width="160" height="18" fill="#0a0a0a" rx="3"/>
  <rect x="50" y="126" width="156" height="16" fill="#050505" rx="2"/>

  <!-- Visor chrome rim (top) -->
  <rect x="48" y="124" width="160" height="2" fill="#c0c0c0" opacity="0.8"/>

  <!-- Visor chrome rim (bottom) -->
  <rect x="48" y="143" width="160" height="2" fill="#606060" opacity="0.6"/>

  <!-- Scanner glow (widest layer) -->
  <ellipse cx="90" cy="134" rx="60" ry="20" fill="url(#scanGrad)" opacity="0.3" filter="url(#strongGlow)">
    <animate attributeName="cx" values="70;186;70" dur="1s" repeatCount="indefinite"/>
  </ellipse>

  <!-- Scanner middle glow -->
  <rect x="60" y="128" width="50" height="12" fill="url(#scanGrad)" opacity="0.6" rx="2" filter="url(#glow)">
    <animate attributeName="x" values="50;156;50" dur="1s" repeatCount="indefinite"/>
  </rect>

  <!-- Main scanner bar (bright) -->
  <rect x="62" y="130" width="46" height="8" fill="url(#scanGrad)" rx="1">
    <animate attributeName="x" values="52;158;52" dur="1s" repeatCount="indefinite"/>
  </rect>

  <!-- Brightest scanner core -->
  <rect x="65" y="131" width="40" height="6" fill="url(#scanCore)" opacity="0.95" rx="1">
    <animate attributeName="x" values="55;161;55" dur="1s" repeatCount="indefinite"/>
  </rect>

  <!-- Lower helmet detail -->
  <path d="M 55 155 Q 128 165 201 155" fill="none" stroke="#a0a0a0" stroke-width="2" opacity="0.4"/>

  <!-- Helmet jaw/chin plate -->
  <ellipse cx="128" cy="170" rx="65" ry="18" fill="url(#chromeHelmet)"/>
  <ellipse cx="128" cy="167" rx="60" ry="12" fill="#d0d0d0" opacity="0.5"/>

  <!-- Side temple vents/details -->
  <g opacity="0.6">
    <rect x="52" y="115" width="6" height="35" fill="#404040" rx="1"/>
    <rect x="198" y="115" width="6" height="35" fill="#404040" rx="1"/>
  </g>

  <!-- Chrome edge highlights -->
  <g opacity="0.3" fill="#ffffff">
    <ellipse cx="75" cy="110" rx="5" ry="25"/>
    <ellipse cx="181" cy="110" rx="5" ry="25"/>
  </g>

  <!-- Dark shadows for depth -->
  <g opacity="0.2" fill="#000000">
    <ellipse cx="70" cy="145" rx="8" ry="20"/>
    <ellipse cx="186" cy="145" rx="8" ry="20"/>
  </g>

  <!-- Helmet center seam detail -->
  <line x1="128" y1="70" x2="128" y2="180" stroke="#808080" stroke-width="0.5" opacity="0.3"/>
</svg>
