<?xml version="1.0" encoding="UTF-8"?>
<svg width="256" height="256" viewBox="0 0 256 256" xmlns="http://www.w3.org/2000/svg">
  <title>TARS</title>

  <defs>
    <!-- Metallic gradient for blocks -->
    <linearGradient id="metallicGradient" x1="0%" y1="0%" x2="100%" y2="100%">
      <stop offset="0%" stop-color="#4a5568"/>
      <stop offset="30%" stop-color="#2d3748"/>
      <stop offset="70%" stop-color="#1a202c"/>
      <stop offset="100%" stop-color="#0d1117"/>
    </linearGradient>

    <!-- Panel gradient -->
    <linearGradient id="panelGradient" x1="0%" y1="0%" x2="0%" y2="100%">
      <stop offset="0%" stop-color="#2d3748"/>
      <stop offset="50%" stop-color="#1a202c"/>
      <stop offset="100%" stop-color="#0d1117"/>
    </linearGradient>

    <!-- Display screen gradient -->
    <linearGradient id="screenGradient" x1="0%" y1="0%" x2="0%" y2="100%">
      <stop offset="0%" stop-color="#1a3a52"/>
      <stop offset="50%" stop-color="#0f2537"/>
      <stop offset="100%" stop-color="#081520"/>
    </linearGradient>

    <!-- Blue glow gradient -->
    <radialGradient id="blueGlow">
      <stop offset="0%" stop-color="#66ccff"/>
      <stop offset="40%" stop-color="#3399ff"/>
      <stop offset="70%" stop-color="#0066cc"/>
      <stop offset="100%" stop-color="#003366"/>
    </radialGradient>

    <!-- Glow filter -->
    <filter id="glow">
      <feGaussianBlur in="SourceGraphic" stdDeviation="3"/>
    </filter>
  </defs>

  <!-- Background -->
  <rect width="256" height="256" fill="#0a0e14"/>

  <!-- Main body (large center block) -->
  <rect x="78" y="48" width="100" height="160" fill="url(#metallicGradient)" rx="6"/>

  <!-- Side blocks (staggered) -->
  <rect x="40" y="78" width="35" height="50" fill="url(#panelGradient)" rx="4"/>
  <rect x="40" y="138" width="35" height="50" fill="url(#panelGradient)" rx="4"/>
  <rect x="181" y="78" width="35" height="50" fill="url(#panelGradient)" rx="4"/>
  <rect x="181" y="138" width="35" height="50" fill="url(#panelGradient)" rx="4"/>

  <!-- Panel detail lines on main body -->
  <g opacity="0.3" stroke="#4a5568" stroke-width="1.5" fill="none">
    <line x1="82" y1="80" x2="174" y2="80"/>
    <line x1="82" y1="128" x2="174" y2="128"/>
    <line x1="82" y1="176" x2="174" y2="176"/>
    <line x1="108" y1="52" x2="108" y2="204"/>
    <line x1="148" y1="52" x2="148" y2="204"/>
  </g>

  <!-- Display screen area -->
  <rect x="88" y="90" width="80" height="65" fill="url(#screenGradient)" rx="4"/>

  <!-- Screen glow base -->
  <rect x="90" y="92" width="76" height="61" fill="url(#blueGlow)" opacity="0.4" rx="3">
    <animate attributeName="opacity" values="0.4;0.7;0.4" dur="0.9s" repeatCount="indefinite"/>
  </rect>

  <!-- Display bars (animated) -->
  <g opacity="0.8">
    <rect x="95" y="100" width="66" height="8" fill="#3399ff" rx="2">
      <animate attributeName="opacity" values="0.6;1;0.6" dur="1.2s" repeatCount="indefinite"/>
    </rect>
    <rect x="95" y="113" width="50" height="8" fill="#0099ff" rx="2">
      <animate attributeName="opacity" values="0.7;1;0.7" dur="1.4s" begin="0.3s" repeatCount="indefinite"/>
    </rect>
    <rect x="95" y="126" width="60" height="8" fill="#66ccff" rx="2">
      <animate attributeName="opacity" values="0.5;1;0.5" dur="1.6s" begin="0.6s" repeatCount="indefinite"/>
    </rect>
    <rect x="95" y="139" width="45" height="8" fill="#0099ff" rx="2">
      <animate attributeName="opacity" values="0.6;1;0.6" dur="1.3s" begin="0.9s" repeatCount="indefinite"/>
    </rect>
  </g>

  <!-- Screen outer glow -->
  <rect x="88" y="90" width="80" height="65" fill="none" stroke="#66ccff" stroke-width="2" opacity="0.4" rx="4" filter="url(#glow)">
    <animate attributeName="opacity" values="0.4;0.7;0.4" dur="0.9s" repeatCount="indefinite"/>
  </rect>

  <!-- Lower panel indicators -->
  <g>
    <circle cx="98" cy="175" r="4" fill="#0099ff" opacity="0.8">
      <animate attributeName="opacity" values="0.4;1;0.4" dur="0.9s" repeatCount="indefinite"/>
    </circle>
    <circle cx="118" cy="175" r="4" fill="#0099ff" opacity="0.8">
      <animate attributeName="opacity" values="0.4;1;0.4" dur="0.9s" begin="0.3s" repeatCount="indefinite"/>
    </circle>
    <circle cx="138" cy="175" r="4" fill="#0099ff" opacity="0.8">
      <animate attributeName="opacity" values="0.4;1;0.4" dur="0.9s" begin="0.6s" repeatCount="indefinite"/>
    </circle>
    <circle cx="158" cy="175" r="4" fill="#0099ff" opacity="0.8">
      <animate attributeName="opacity" values="0.4;1;0.4" dur="0.9s" begin="0.9s" repeatCount="indefinite"/>
    </circle>
  </g>

  <!-- Top status light -->
  <rect x="118" y="60" width="20" height="12" fill="url(#blueGlow)" opacity="0.7" rx="2">
    <animate attributeName="opacity" values="0.5;0.9;0.5" dur="2s" repeatCount="indefinite"/>
  </rect>

  <!-- Side panel details -->
  <g opacity="0.4">
    <rect x="43" y="85" width="8" height="36" fill="#0099ff" rx="1" opacity="0.5"/>
    <rect x="184" y="85" width="8" height="36" fill="#0099ff" rx="1" opacity="0.5"/>
    <rect x="43" y="145" width="8" height="36" fill="#0099ff" rx="1" opacity="0.5"/>
    <rect x="184" y="145" width="8" height="36" fill="#0099ff" rx="1" opacity="0.5"/>
  </g>

  <!-- Metallic highlights -->
  <g opacity="0.15" fill="#ffffff">
    <rect x="80" y="50" width="3" height="156"/>
    <rect x="173" y="50" width="3" height="156"/>
    <rect x="42" y="80" width="2" height="46"/>
    <rect x="183" y="80" width="2" height="46"/>
  </g>

  <!-- Edge bevels for depth -->
  <g opacity="0.1" fill="#000000">
    <rect x="175" y="50" width="3" height="156"/>
    <rect x="213" y="80" width="2" height="46"/>
    <rect x="213" y="140" width="2" height="46"/>
  </g>
</svg>
