<?xml version="1.0" encoding="UTF-8"?>
<svg width="256" height="256" viewBox="0 0 256 256" xmlns="http://www.w3.org/2000/svg">
  <title>DALEK</title>

  <defs>
    <!-- Bronze dome gradient -->
    <radialGradient id="bronzeDome">
      <stop offset="0%" stop-color="#d4a574"/>
      <stop offset="40%" stop-color="#b8860b"/>
      <stop offset="70%" stop-color="#8b6914"/>
      <stop offset="100%" stop-color="#6b5416"/>
    </radialGradient>

    <!-- Hemisphere bump gradient -->
    <radialGradient id="bumpGrad">
      <stop offset="0%" stop-color="#d4a574"/>
      <stop offset="50%" stop-color="#b8860b"/>
      <stop offset="100%" stop-color="#6b5416"/>
    </radialGradient>

    <!-- Eye lens gradient -->
    <radialGradient id="eyeLens">
      <stop offset="0%" stop-color="#e6f7ff"/>
      <stop offset="30%" stop-color="#66d9ff"/>
      <stop offset="70%" stop-color="#0099ff"/>
      <stop offset="100%" stop-color="#003366"/>
    </radialGradient>

    <!-- Eye glow -->
    <radialGradient id="eyeGlow">
      <stop offset="0%" stop-color="#66d9ff" stop-opacity="0.8"/>
      <stop offset="60%" stop-color="#0099ff" stop-opacity="0.4"/>
      <stop offset="100%" stop-color="#003d7a" stop-opacity="0"/>
    </radialGradient>

    <!-- Bronze shine -->
    <linearGradient id="bronzeShine" x1="0%" y1="0%" x2="0%" y2="100%">
      <stop offset="0%" stop-color="#ffffff" stop-opacity="0.4"/>
      <stop offset="50%" stop-color="#d4a574" stop-opacity="0.2"/>
      <stop offset="100%" stop-color="#8b6914" stop-opacity="0"/>
    </linearGradient>

    <filter id="glow">
      <feGaussianBlur in="SourceGraphic" stdDeviation="3"/>
    </filter>
  </defs>

  <!-- Background -->
  <rect width="256" height="256" fill="#1a1510"/>

  <!-- Dome shadow -->
  <ellipse cx="130" cy="140" rx="95" ry="80" fill="#000000" opacity="0.4"/>

  <!-- Main dome (rounded top) -->
  <ellipse cx="128" cy="135" rx="92" ry="78" fill="url(#bronzeDome)"/>

  <!-- Dome top shine -->
  <ellipse cx="128" cy="110" rx="70" ry="40" fill="url(#bronzeShine)" opacity="0.5"/>

  <!-- Top dome section (flat top area) -->
  <ellipse cx="128" cy="80" rx="50" ry="15" fill="url(#bronzeDome)"/>
  <ellipse cx="128" cy="78" rx="48" ry="12" fill="#d4a574" opacity="0.6"/>

  <!-- Hemisphere bumps (arranged in rows - iconic Dalek feature) -->
  <!-- Top row (5 bumps) -->
  <circle cx="80" cy="105" r="8" fill="url(#bumpGrad)"/>
  <circle cx="104" cy="100" r="8" fill="url(#bumpGrad)"/>
  <circle cx="128" cy="98" r="8" fill="url(#bumpGrad)"/>
  <circle cx="152" cy="100" r="8" fill="url(#bumpGrad)"/>
  <circle cx="176" cy="105" r="8" fill="url(#bumpGrad)"/>

  <!-- Second row (6 bumps) -->
  <circle cx="70" cy="125" r="8" fill="url(#bumpGrad)"/>
  <circle cx="92" cy="122" r="8" fill="url(#bumpGrad)"/>
  <circle cx="116" cy="120" r="8" fill="url(#bumpGrad)"/>
  <circle cx="140" cy="120" r="8" fill="url(#bumpGrad)"/>
  <circle cx="164" cy="122" r="8" fill="url(#bumpGrad)"/>
  <circle cx="186" cy="125" r="8" fill="url(#bumpGrad)"/>

  <!-- Third row (7 bumps) -->
  <circle cx="60" cy="145" r="8" fill="url(#bumpGrad)"/>
  <circle cx="82" cy="143" r="8" fill="url(#bumpGrad)"/>
  <circle cx="104" cy="141" r="8" fill="url(#bumpGrad)"/>
  <circle cx="128" cy="140" r="8" fill="url(#bumpGrad)"/>
  <circle cx="152" cy="141" r="8" fill="url(#bumpGrad)"/>
  <circle cx="174" cy="143" r="8" fill="url(#bumpGrad)"/>
  <circle cx="196" cy="145" r="8" fill="url(#bumpGrad)"/>

  <!-- Fourth row (6 bumps) -->
  <circle cx="70" cy="165" r="8" fill="url(#bumpGrad)"/>
  <circle cx="92" cy="164" r="8" fill="url(#bumpGrad)"/>
  <circle cx="116" cy="163" r="8" fill="url(#bumpGrad)"/>
  <circle cx="140" cy="163" r="8" fill="url(#bumpGrad)"/>
  <circle cx="164" cy="164" r="8" fill="url(#bumpGrad)"/>
  <circle cx="186" cy="165" r="8" fill="url(#bumpGrad)"/>

  <!-- Fifth row (5 bumps) -->
  <circle cx="80" cy="185" r="8" fill="url(#bumpGrad)"/>
  <circle cx="104" cy="184" r="8" fill="url(#bumpGrad)"/>
  <circle cx="128" cy="183" r="8" fill="url(#bumpGrad)"/>
  <circle cx="152" cy="184" r="8" fill="url(#bumpGrad)"/>
  <circle cx="176" cy="185" r="8" fill="url(#bumpGrad)"/>

  <!-- Bump highlights (top light spots) -->
  <g opacity="0.6" fill="#f0e6d2">
    <circle cx="128" cy="96" r="3"/>
    <circle cx="152" cy="98" r="3"/>
    <circle cx="104" cy="98" r="3"/>
    <circle cx="116" cy="118" r="3"/>
    <circle cx="140" cy="118" r="3"/>
    <circle cx="128" cy="138" r="3"/>
  </g>

  <!-- Eyestalk base mount (on top of dome) -->
  <ellipse cx="128" cy="70" rx="18" ry="8" fill="#6b5416"/>
  <ellipse cx="128" cy="68" rx="16" ry="6" fill="#8b6914"/>

  <!-- Eyestalk tube (jointed sections) -->
  <rect x="122" y="42" width="12" height="30" fill="#8b6914" rx="2"/>
  <circle cx="128" cy="42" r="7" fill="#b8860b"/>
  <circle cx="128" cy="42" r="5" fill="#6b5416"/>

  <!-- Eye lens housing (ball at end of stalk) -->
  <circle cx="128" cy="35" r="20" fill="#2a2a2a"/>
  <circle cx="128" cy="35" r="18" fill="#1a1a1a"/>

  <!-- Eye lens rim -->
  <circle cx="128" cy="35" r="16" fill="none" stroke="#8b6914" stroke-width="3"/>

  <!-- Eye glow aura -->
  <circle cx="128" cy="35" r="22" fill="url(#eyeGlow)" opacity="0.6" filter="url(#glow)">
    <animate attributeName="opacity" values="0.4;0.7;0.4" dur="2s" repeatCount="indefinite"/>
  </circle>

  <!-- Main eye lens (glowing blue) -->
  <circle cx="128" cy="35" r="14" fill="url(#eyeLens)">
    <animate attributeName="r" values="14;15;14" dur="2s" repeatCount="indefinite"/>
  </circle>

  <!-- Inner eye glow -->
  <circle cx="128" cy="35" r="10" fill="#66d9ff" opacity="0.9">
    <animate attributeName="opacity" values="0.8;1;0.8" dur="2s" repeatCount="indefinite"/>
  </circle>

  <!-- Eye bright center -->
  <circle cx="128" cy="35" r="6" fill="#e6f7ff"/>

  <!-- Lens reflection -->
  <ellipse cx="124" cy="31" rx="5" ry="6" fill="#ffffff" opacity="0.7"/>
  <circle cx="122" cy="30" r="2" fill="#ffffff" opacity="0.9"/>

  <!-- Dome panel lines -->
  <g opacity="0.2" stroke="#6b5416" stroke-width="1.5" fill="none">
    <ellipse cx="128" cy="135" rx="85" ry="70"/>
    <ellipse cx="128" cy="135" rx="70" ry="55"/>
  </g>

  <!-- Dome edge shadow -->
  <ellipse cx="128" cy="210" rx="85" ry="15" fill="#000000" opacity="0.3"/>
</svg>
